<?xml version="1.0" encoding="UTF-8" standalone="no"?>
<!-- Created with Inkscape (http://www.inkscape.org/) -->

<svg
   width="126.434"
   height="163.57401"
   viewBox="0 0 33.452324 43.27895"
   version="1.1"
   id="svg1"
   inkscape:version="1.4.2 (2aeb623e1d, 2025-05-12)"
   sodipodi:docname="mouse.svg"
   xml:space="preserve"
   xmlns:inkscape="http://www.inkscape.org/namespaces/inkscape"
   xmlns:sodipodi="http://sodipodi.sourceforge.net/DTD/sodipodi-0.dtd"
   xmlns="http://www.w3.org/2000/svg"
   xmlns:svg="http://www.w3.org/2000/svg"><sodipodi:namedview
     id="namedview1"
     pagecolor="#ffffff"
     bordercolor="#000000"
     borderopacity="0.25"
     inkscape:showpageshadow="2"
     inkscape:pageopacity="0.0"
     inkscape:pagecheckerboard="0"
     inkscape:deskcolor="#d1d1d1"
     inkscape:document-units="px"
     inkscape:zoom="0.89987494"
     inkscape:cx="456.73013"
     inkscape:cy="385.05351"
     inkscape:window-width="2560"
     inkscape:window-height="1361"
     inkscape:window-x="0"
     inkscape:window-y="0"
     inkscape:window-maximized="1"
     inkscape:current-layer="layer1"
     showgrid="false" /><defs
     id="defs1" /><g
     inkscape:label="Layer 1"
     inkscape:groupmode="layer"
     id="layer1"><path
       style="fill:#eaa8f8;fill-opacity:1;stroke:none;stroke-width:0.264583px;stroke-linecap:butt;stroke-linejoin:miter;stroke-opacity:1"
       d="m 1.3618407,3.2269504 c 0,0 1.64112,0.393371 2.478196,0.476574 1.119377,0.111264 2.258969,0.171842 3.374567,0.02753 0.663916,-0.08588 1.32398,-0.260161 1.938003,-0.526877 0.596617,-0.259155 1.0916653,-0.709374 1.6594163,-1.026821 0.463424,-0.259115 0.957772,-0.516231 1.423328,-0.715026 0.350908,-0.14984 0.703102,-0.297566 1.061863,-0.427487 0.232702,-0.08427 0.468665,-0.15987798 0.706588,-0.22802798 0.298834,-0.0856 0.59981,-0.165461 0.904531,-0.226891 0.33024,-0.06657 0.663505,-0.122382 0.998984,-0.153112 0.275272,-0.02521 0.553041,-0.04329 0.828884,-0.02537 0.399157,0.02593 0.805355,0.06443 1.184601,0.191598 0.517116,0.173396 1.01373,0.43301098 1.44623,0.76530198 0.26565,0.204102 0.49011,0.463361 0.68306,0.737221 0.22084,0.313451 0.3949,0.661884 0.53147,1.020173 0.10457,0.274331 0.16727,0.564327 0.21627,0.853791 0.0585,0.345543 0.0802,0.697103 0.0918,1.047372 0.009,0.271137 0.006,0.543351 -0.0171,0.813681 -0.0214,0.25424 -0.051,0.509447 -0.11211,0.757163 -0.0614,0.248951 -0.14828,0.492495 -0.25409,0.726057 -0.1386,0.305938 -0.31504,0.594078 -0.49548,0.87736 -0.14124,0.221747 -0.45842,0.641829 -0.45842,0.641829 0,0 0.89298,0.137846 1.3326,0.240094 0.32995,0.07674 0.65636,0.170474 0.97704,0.279667 0.3762,0.1281 0.74634,0.275382 1.10825,0.439571 0.25419,0.115321 0.50226,0.2445476 0.74499,0.3823776 0.26905,0.152778 0.53267,0.315937 0.78709,0.492003 0.2706,0.18726 0.5303,0.390317 0.7847,0.599051 0.1252,0.102721 0.24636,0.210432 0.36455,0.321146 0.19471,0.182399 0.38694,0.368047 0.56713,0.564801 0.28937,0.315968 0.56556,0.644793 0.82365,0.98679 0.22329,0.295878 0.43088,0.603955 0.62553,0.919413 0.23129,0.374836 0.44468,0.761067 0.64306,1.154309 0.18095,0.358684 0.34429,0.726344 0.49823,1.097422 0.13917,0.33548 0.26635,0.676077 0.38415,1.019644 0.1374,0.400713 0.26081,0.806295 0.37598,1.213953 0.0825,0.29217 0.15553,0.587033 0.22563,0.882427 0.0607,0.255741 0.11962,0.51206 0.16892,0.770247 0.13005,0.681159 0.23757,1.366669 0.33437,2.053344 0.0331,0.234507 0.0841,0.70548 0.0841,0.70548 0,0 0.50893,0.351996 0.74526,0.550968 0.1355,0.114083 0.26196,0.238936 0.38409,0.367228 0.12012,0.126172 0.23598,0.256927 0.34216,0.395034 0.15961,0.207605 0.30989,0.423397 0.44167,0.649687 0.13022,0.223604 0.24309,0.457699 0.34299,0.696391 0.0767,0.183287 0.14137,0.371891 0.19607,0.562917 0.0613,0.214217 0.1105,0.432261 0.1474,0.651999 0.0322,0.191872 0.0532,0.385882 0.0644,0.580118 0.012,0.201659 0.0164,0.404431 0.003,0.60598 -0.0219,0.329178 -0.0661,0.657922 -0.1361,0.980318 -0.0501,0.2309 -0.11304,0.460617 -0.20244,0.679315 -0.18885,0.461801 -0.42842,0.904487 -0.70015,1.322922 -0.0905,0.139384 -0.19891,0.266675 -0.30771,0.392305 -0.12898,0.148928 -0.26415,0.293041 -0.40819,0.427456 -0.1706,0.159202 -0.35075,0.308721 -0.53846,0.447344 -0.15569,0.114974 -0.31841,0.220871 -0.48599,0.317691 -0.18846,0.108893 -0.38384,0.206151 -0.58251,0.295081 -0.22518,0.100795 -0.68927,0.269613 -0.68927,0.269613 0,0 -0.25299,0.463257 -0.386,0.691161 -0.24263,0.415718 -0.49137,0.828068 -0.75142,1.233119 -0.24829,0.386746 -0.50634,0.76734 -0.77189,1.142447 -0.25988,0.367099 -0.52775,0.728678 -0.8035,1.084011 -0.17848,0.229997 -0.36373,0.454727 -0.55056,0.677995 -0.13102,0.156574 -0.26397,0.311586 -0.39995,0.463875 -0.21394,0.239605 -0.4317,0.475895 -0.6542,0.707573 -0.12468,0.12982 -0.25163,0.257521 -0.38136,0.382294 -0.26805,0.257806 -0.54095,0.510739 -0.81999,0.756607 -0.12111,0.106713 -0.2435,0.212192 -0.37058,0.311722 -0.36915,0.289129 -0.74575,0.569862 -1.13707,0.828193 -0.26279,0.173477 -0.53191,0.338699 -0.81147,0.483603 -0.40984,0.212434 -0.83046,0.407887 -1.26511,0.563388 -0.34025,0.121728 -0.690524,0.218826 -1.045354,0.287266 -0.345003,0.06655 -0.696223,0.106627 -1.047376,0.118737 -0.341534,0.01178 -0.685063,-0.0031 -1.024224,-0.04501 -0.325163,-0.04015 -0.647482,-0.108577 -0.96295,-0.197027 -0.383552,-0.107542 -0.757781,-0.24886 -1.124649,-0.404053 -0.229798,-0.09721 -0.453546,-0.209128 -0.672227,-0.329277 -0.358685,-0.197071 -0.70818,-0.411691 -1.047138,-0.641035 -0.290133,-0.196308 -0.568554,-0.40984 -0.84269,-0.62793 -0.215988,-0.17183 -0.427278,-0.349886 -0.631336,-0.535728 -0.407127,-0.370784 -0.800442,-0.757087 -1.181647,-1.154473 -0.23684,-0.246894 -0.4628093,-0.504143 -0.6861443,-0.763317 -0.210434,-0.244202 -0.415228,-0.493319 -0.615818,-0.74567 -0.205002,-0.257902 -0.405363,-0.519576 -0.600434,-0.785069 -0.234423,-0.319052 -0.465023,-0.641147 -0.684718,-0.970513 -0.362,-0.542709 -0.708711,-1.095799 -1.043022,-1.655989 -0.161444,-0.270524 -0.50636,-0.904366 -0.50636,-0.904366 0,0 -0.677173,-0.233348 -0.935164,-0.362692 -0.279343,-0.140049 -0.54659,-0.305476 -0.801531,-0.486172 -0.17992,-0.127523 -0.351543,-0.267857 -0.511106,-0.420084 -0.239801,-0.228776 -0.461259,-0.477553 -0.666756,-0.737579 -0.101109,-0.127939 -0.191567,-0.264315 -0.277267,-0.403045 -0.107451,-0.173931 -0.207399,-0.352913 -0.296309,-0.537011 -0.08746,-0.181084 -0.165049,-0.367245 -0.232519,-0.556686 -0.06663,-0.187057 -0.124305,-0.37772 -0.169585,-0.571056 -0.05455,-0.232924 -0.0981,-0.469173 -0.122462,-0.707157 -0.02849,-0.278166 -0.0388,-0.559032 -0.02729,-0.838414 0.01116,-0.270751 0.04414,-0.54108 0.0932,-0.807582 0.04176,-0.226828 0.102344,-0.450252 0.170654,-0.670544 0.03972,-0.12809 0.08729,-0.2538 0.138766,-0.377632 0.08098,-0.194781 0.167966,-0.387507 0.267176,-0.573667 0.08219,-0.154226 0.171281,-0.305297 0.271071,-0.44876 0.180441,-0.2594 0.375706,-0.509791 0.590272,-0.741759 0.153438,-0.165883 0.320902,-0.319254 0.49598,-0.462111 0.20317,-0.165779 0.640831,-0.456271 0.640831,-0.456271 0,0 0.100209,-0.832265 0.159169,-1.247203 0.04111,-0.289342 0.08516,-0.578336 0.135683,-0.866185 0.05028,-0.286465 0.10548,-0.572131 0.1666,-0.85648 0.08056,-0.374783 0.165348,-0.748879 0.263708,-1.119389 0.12065,-0.454463 0.252184,-0.906352 0.40015,-1.352669 0.126134,-0.380463 0.264854,-0.756965 0.415296,-1.128487 0.134556,-0.33229 0.276888,-0.661876 0.435477,-0.98339 0.218076,-0.442116 0.446312,-0.8807 0.708512,-1.298162 0.328763,-0.52344 0.686811,-1.030514 1.080505,-1.507043 0.28273,-0.342218 0.592417,-0.66281 0.916445,-0.966216 0.310113,-0.290376 0.6371133,-0.564079 0.9803193,-0.814474 0.348706,-0.254408 0.716458,-0.483199 1.092062,-0.695899 0.247073,-0.1399146 0.50243,-0.2656476 0.762066,-0.3805846 0.310059,-0.137258 0.626235,-0.26205 0.948285,-0.368165 0.479567,-0.158017 0.96715,-0.295326 1.46141,-0.398579 0.450594,-0.09413 1.366348,-0.200395 1.366348,-0.200395 0,0 0.282783,-0.253593 0.413136,-0.391419 0.187766,-0.19853 0.358002,-0.413075 0.529802,-0.625571 0.09586,-0.11857 0.190922,-0.237999 0.279402,-0.362174 0.127044,-0.178295 0.248278,-0.361022 0.36054,-0.548976 0.10471,-0.175309 0.203261,-0.354656 0.291401,-0.538853 0.09538,-0.199329 0.211193,-0.395063 0.256263,-0.611392 0.04193,-0.20126 0.0175,-0.411298 0.0086,-0.616688 -0.01191,-0.274519 -0.01493,-0.553901 -0.08282,-0.82016 -0.06842,-0.268339 -0.142195,-0.55543 -0.322485,-0.765625 -0.131312,-0.153094 -0.325978,-0.247685 -0.515366,-0.317055 -0.241813,-0.08858 -0.506404,-0.108407 -0.763818,-0.116007 -0.344765,-0.01015 -0.689877,0.03994 -1.03038,0.09492 -0.215404,0.03478 -0.42719,0.09038 -0.637592,0.148169 -0.225114,0.06183 -0.447053,0.135179 -0.667444,0.212169 -0.221759,0.07747 -0.441958,0.159947 -0.658434,0.251137 -0.329881,0.13897 -0.659062,0.281884 -0.974751,0.450628 -0.272702,0.145766 -0.534415,0.31198 -0.791453,0.483867 -0.179835,0.12026 -0.346918,0.258694 -0.524381,0.382427 -0.261497,0.182325 -0.508709,0.391892 -0.795935,0.530182 -0.391614,0.18855 -0.8180183,0.301184 -1.2418453,0.397534 -0.160337,0.03645 -0.324687,0.05505 -0.488643,0.06749 -0.292222,0.02214 -0.586505,0.02913 -0.879097,0.01254 -0.313819,-0.01779 -0.625905,-0.06456 -0.93531,-0.119949 -0.34938,-0.06254 -0.688054,-0.177465 -1.037553,-0.239334 -0.05586,-0.0099 -0.877261,-0.28049 -1.303916,-0.452661 -0.575173,-0.232104 -1.140132,-0.491867 -1.689018,-0.780692 -0.595254,-0.313225 -1.161745,-0.678513 -1.735103,-1.03022 C 0.90543669,3.3142394 0.39676769,2.9868734 0.39676769,2.9868734"
       id="path18"
       sodipodi:nodetypes="cssssssssssssssssssssssssssscssssssssssssssscssssssssssssssssscsssssssssssssssssssssssssssscssssssssssssssssscssssssssssssssssscssssssssssssssssssssc" /><path
       style="fill:none;stroke:#8b3ec0;stroke-width:0.79375;stroke-linecap:round;stroke-linejoin:round;stroke-dasharray:none;stroke-opacity:1"
       d="m 4.8073157,22.961396 c 0,0 0.132299,-1.113051 0.225161,-1.698664 0.0675,-0.425674 0.14747,-0.849463 0.236291,-1.271204 0.079,-0.375115 0.165346,-0.748878 0.263708,-1.119388 0.12065,-0.454463 0.252184,-0.906352 0.40015,-1.352669 0.126134,-0.380463 0.264854,-0.756966 0.415296,-1.128488 0.134556,-0.33229 0.27989,-0.660413 0.435477,-0.98339 0.138618,-0.287751 0.284742,-0.572223 0.443299,-0.849487 0.203758,-0.356305 0.41873,-0.706847 0.651968,-1.04459 0.216916,-0.314107 0.448052,-0.618983 0.69375,-0.911127 0.238872,-0.284028 0.488747,-0.559964 0.757071,-0.816351 0.3598,-0.343794 0.7389943,-0.669229 1.1396933,-0.96434 0.347559,-0.255974 0.716458,-0.483199 1.092062,-0.695899 0.247073,-0.1399136 0.50136,-0.2680956 0.762066,-0.3805836 0.470952,-0.203205 0.954077,-0.38014 1.444672,-0.529821 0.31681,-0.09666 0.640925,-0.168572 0.965023,-0.236923 0.208916,-0.04406 0.419278,-0.08209 0.630756,-0.11149 0.45138,-0.06274 0.905147,-0.112759 1.360154,-0.138235 0.466132,-0.0261 0.9338,-0.0268 1.400508,-0.01482 0.301913,0.0078 0.603638,0.02754 0.904301,0.05606 0.32301,0.03064 0.64536,0.07083 0.96551,0.123513 0.29886,0.04918 0.59645,0.107907 0.89073,0.179567 0.32914,0.08015 0.65636,0.170474 0.97704,0.279667 0.3762,0.1281 0.74844,0.270826 1.10825,0.439571 0.41491,0.194584 0.82017,0.4125486 1.20687,0.6584576 0.38732,0.246298 0.75791,0.520407 1.10991,0.814975 0.32866,0.275032 0.63861,0.573268 0.93168,0.885946 0.293,0.312605 0.56556,0.644793 0.82365,0.98679 0.22329,0.295878 0.43088,0.603956 0.62553,0.919414 0.23129,0.374836 0.44468,0.761066 0.64306,1.154308 0.18095,0.358685 0.34429,0.726346 0.49823,1.097425 0.13917,0.335479 0.26635,0.676075 0.38415,1.019641 0.1374,0.400713 0.26245,0.805835 0.37598,1.213953 0.11707,0.420864 0.22034,0.845664 0.31443,1.272254 0.0873,0.395784 0.16196,0.794356 0.2319,1.193573 0.0478,0.272523 0.0899,0.546059 0.12812,0.820075 0.0523,0.374399 0.13856,1.125596 0.13856,1.125596"
       id="path6"
       sodipodi:nodetypes="csssssssssssssssssssssssssssssssssssc" /><path
       style="fill:none;stroke:#8b3ec0;stroke-width:0.79375;stroke-linecap:round;stroke-linejoin:miter;stroke-dasharray:none;stroke-opacity:1"
       d="m 13.135991,26.212308 c 0,0 -0.197776,-0.602453 -0.334232,-0.887654 -0.14114,-0.294992 -0.307437,-0.579502 -0.497996,-0.845261 C 12.104308,24.201227 11.875745,23.943221 11.633084,23.70182 11.471936,23.541508 11.295816,23.396074 11.114395,23.259124 10.93863,23.126443 10.75419,23.004751 10.564215,22.893364 10.390656,22.791602 10.211926,22.697529 10.027156,22.617917 9.7518937,22.499315 9.4685267,22.397183 9.1793807,22.31825 c -0.238778,-0.06518 -0.482586,-0.116551 -0.728729,-0.142584 -0.405958,-0.04294 -0.817533,-0.05373 -1.224478,-0.02146 -0.312007,0.02474 -0.622498,0.08196 -0.924491,0.164185 -0.346694,0.09439 -0.689044,0.214831 -1.010399,0.375571 -0.398736,0.199446 -0.777869,0.443691 -1.124799,0.723706 -0.276218,0.222942 -0.526711,0.479638 -0.752231,0.753756 -0.229474,0.278924 -0.432592,0.58154 -0.605092,0.898874 -0.164656,0.302904 -0.295441,0.624723 -0.405942,0.951299 -0.07392,0.218472 -0.128897,0.443716 -0.170654,0.670544 -0.04906,0.266502 -0.08204,0.536831 -0.0932,0.807582 -0.01151,0.279382 -0.0012,0.560248 0.02729,0.838414 0.02436,0.237984 0.06791,0.474233 0.122462,0.707157 0.04528,0.193336 0.10296,0.383999 0.169585,0.571056 0.06747,0.189441 0.145061,0.375602 0.232519,0.556686 0.08891,0.184098 0.188858,0.36308 0.296309,0.537011 0.0857,0.13873 0.178857,0.273019 0.277267,0.403045 0.105825,0.139824 0.218217,0.274885 0.33614,0.40467 0.105172,0.115751 0.214955,0.227638 0.330616,0.332909 0.163091,0.148441 0.334071,0.288585 0.511106,0.420084 0.117437,0.08723 0.239854,0.167884 0.364728,0.244089 0.142097,0.08672 0.286559,0.170403 0.436803,0.242083 0.260474,0.124269 0.527565,0.237323 0.802669,0.324541 0.274587,0.08705 0.841454,0.196839 0.841454,0.196839"
       id="path7"
       sodipodi:nodetypes="csssssssssssssssssssssssssssssc" /><path
       style="fill:none;stroke:#8b3ec0;stroke-width:0.79375;stroke-linecap:round;stroke-linejoin:round;stroke-dasharray:none;stroke-opacity:1"
       d="m 22.054342,26.212308 c 0,0 0.15718,-0.492858 0.2616,-0.728959 0.1126,-0.254604 0.24369,-0.501843 0.39175,-0.737595 0.14014,-0.223139 0.29719,-0.436409 0.46784,-0.63718 0.17348,-0.204103 0.36443,-0.393598 0.56265,-0.573767 0.1194,-0.108529 0.24594,-0.209409 0.37632,-0.304478 0.17276,-0.125974 0.35103,-0.245218 0.53659,-0.351435 0.20317,-0.116294 0.41334,-0.221411 0.62931,-0.311735 0.22382,-0.09361 0.45307,-0.176921 0.68801,-0.237437 0.345,-0.08886 0.69829,-0.149899 1.05302,-0.182806 0.23542,-0.02184 0.47333,-0.02504 0.70924,-0.0093 0.35828,0.02391 0.71744,0.06969 1.06571,0.157131 0.37273,0.09358 0.73722,0.226464 1.08472,0.390562 0.29753,0.140502 0.57738,0.318024 0.8483,0.504761 0.13945,0.09612 0.27047,0.204369 0.39818,0.315611 0.13357,0.116344 0.26196,0.238936 0.38409,0.367228 0.12012,0.126172 0.23598,0.256927 0.34216,0.395034 0.15961,0.207605 0.30989,0.423397 0.44167,0.649687 0.13022,0.223604 0.24308,0.457699 0.34299,0.696391 0.0767,0.183287 0.1414,0.371891 0.19607,0.562917 0.0613,0.214217 0.11048,0.432261 0.1474,0.651999 0.0322,0.191872 0.0532,0.385882 0.0644,0.580118 0.0117,0.201659 0.0116,0.404167 0.003,0.60598 -0.006,0.151411 -0.0206,0.302617 -0.0409,0.4528 -0.0239,0.177071 -0.0537,0.353711 -0.0952,0.527518 -0.0548,0.229835 -0.11996,0.457898 -0.20244,0.679315 -0.0921,0.247158 -0.20094,0.488682 -0.32517,0.721339 -0.1113,0.20844 -0.23937,0.408076 -0.37498,0.601583 -0.0954,0.136102 -0.19891,0.266676 -0.30771,0.392306 -0.12898,0.148928 -0.26415,0.29304 -0.40819,0.427455 -0.1706,0.159201 -0.35075,0.308721 -0.53846,0.447344 -0.15569,0.114974 -0.31841,0.220866 -0.48599,0.317691 -0.18846,0.108894 -0.38292,0.208235 -0.58251,0.295082 -0.20095,0.08744 -0.40699,0.164516 -0.61715,0.22665 -0.25184,0.07446 -0.76835,0.174214 -0.76835,0.174214"
       id="path8"
       sodipodi:nodetypes="csssssssssssssssssssssssssssssssssc" /><path
       style="fill:none;stroke:#8b3ec0;stroke-width:0.79375;stroke-linecap:round;stroke-linejoin:round;stroke-dasharray:none;stroke-opacity:1"
       d="m 6.2210217,33.201011 c 0,0 0.30562,0.551049 0.464693,0.822973 0.149804,0.25608 0.303354,0.510016 0.461103,0.76128 0.189168,0.301308 0.382349,0.600189 0.581919,0.89471 0.22209,0.327756 0.450295,0.651461 0.684718,0.970513 0.195071,0.265493 0.395432,0.527166 0.600434,0.785068 0.20059,0.252351 0.405384,0.501467 0.615818,0.74567 0.223335,0.259174 0.4511023,0.514712 0.6861443,0.763318 0.252755,0.267341 0.51316,0.527528 0.7782,0.782695 0.131742,0.126835 0.266458,0.250628 0.403447,0.371777 0.206749,0.182843 0.415348,0.363898 0.631336,0.535728 0.274136,0.21809 0.552557,0.431623 0.84269,0.627931 0.338958,0.229344 0.688453,0.443965 1.047138,0.641035 0.218681,0.120149 0.443905,0.228649 0.672227,0.329276 0.216539,0.09543 0.436403,0.184262 0.660641,0.259855 0.27438,0.0925 0.552701,0.175955 0.835887,0.236334 0.318548,0.06792 0.641705,0.123013 0.966928,0.14079 0.442263,0.02417 0.88929,0.01439 1.327938,-0.047 0.480594,-0.06726 0.954199,-0.19226 1.413159,-0.349896 0.43659,-0.149954 0.8577,-0.346327 1.26511,-0.563388 0.44476,-0.236957 0.86904,-0.512679 1.28083,-0.803177 0.36042,-0.254264 0.70485,-0.531592 1.03829,-0.82034 0.41713,-0.361225 0.81627,-0.743686 1.20135,-1.138902 0.36659,-0.376241 0.71526,-0.770075 1.05415,-1.171448 0.32202,-0.381397 0.63093,-0.774072 0.9295,-1.174096 0.30873,-0.413636 0.60165,-0.839005 0.8905,-1.266764 0.18776,-0.278052 0.37008,-0.559832 0.54749,-0.844595 0.17503,-0.280942 0.34418,-0.56557 0.50988,-0.852117 0.13209,-0.228438 0.386,-0.691161 0.386,-0.691161"
       id="path9"
       sodipodi:nodetypes="csssssssssssssssssssssssssssc" /><path
       style="fill:none;stroke:#8b3ec0;stroke-width:0.79375;stroke-linecap:round;stroke-linejoin:round;stroke-dasharray:none;stroke-opacity:1"
       d="m 16.09935,8.7780764 c 0,0 0.282784,-0.253593 0.413137,-0.391419 0.187765,-0.198529 0.358001,-0.413074 0.529801,-0.62557 0.09586,-0.11857 0.190922,-0.237999 0.279403,-0.362175 0.127044,-0.178295 0.248278,-0.361022 0.36054,-0.548976 0.10471,-0.175309 0.203259,-0.354656 0.291401,-0.538853 0.09538,-0.199329 0.211187,-0.395062 0.256262,-0.611391 0.04193,-0.20126 0.01751,-0.411298 0.0086,-0.616688 -0.01191,-0.274519 -0.01493,-0.553902 -0.08282,-0.820161 -0.06842,-0.268339 -0.142195,-0.55543 -0.322485,-0.765625 -0.131312,-0.153094 -0.325977,-0.247681 -0.515365,-0.317055 -0.241813,-0.08858 -0.506533,-0.104863 -0.763818,-0.116007 -0.244357,-0.01058 -0.489899,0.01404 -0.732248,0.04704 -0.315766,0.043 -0.628705,0.11063 -0.935725,0.196046 -0.451035,0.125482 -0.891913,0.287655 -1.325877,0.463306 -0.331808,0.134303 -0.659062,0.281884 -0.974751,0.450628 -0.272702,0.145766 -0.53226,0.315247 -0.791454,0.483867 -0.448459,0.291748 -0.840282,0.676388 -1.320315,0.912609 -0.38998,0.191907 -0.8145523,0.317955 -1.2418463,0.397534 -0.448973,0.08362 -0.911891,0.107809 -1.367739,0.08004 -0.6672,-0.04064 -1.326403,-0.18929 -1.972863,-0.359283 -0.444958,-0.117006 -0.877262,-0.280489 -1.303917,-0.45266 -0.575173,-0.232104 -1.141429,-0.489416 -1.689018,-0.780692 -0.860778,-0.457869 -2.50156601,-1.515721 -2.50156601,-1.515721 0,0 1.69851201,0.439071 2.56191801,0.588208 0.630942,0.108983 1.268953,0.181055 1.907857,0.223086 0.446457,0.02937 0.895273,0.04288 1.342115,0.02011 0.527974,-0.0269 1.058164,-0.07446 1.57517,-0.184843 0.46763,-0.09984 0.933941,-0.230355 1.368779,-0.429257 0.591526,-0.270574 1.0896403,-0.713024 1.6594163,-1.026821 0.602457,-0.331795 1.220627,-0.63796 1.855499,-0.902497 0.435655,-0.181528 0.884215,-0.33247998 1.336289,-0.46804198 0.297752,-0.08929 0.59981,-0.165461 0.904531,-0.226891 0.33024,-0.06657 0.663187,-0.126082 0.998984,-0.153114 0.348997,-0.02809 0.702135,-0.04563 1.05034,-0.009 0.440656,0.04636 0.88538,0.125636 1.297745,0.287755 0.39991,0.157223 0.776759,0.38348998 1.111632,0.65276198 0.26107,0.20993 0.49011,0.463361 0.68306,0.737221 0.22084,0.313451 0.3949,0.661884 0.53147,1.020173 0.10457,0.274331 0.16725,0.564328 0.21627,0.853792 0.0585,0.345542 0.0802,0.697102 0.0918,1.047371 0.009,0.271137 0.006,0.543351 -0.0171,0.813681 -0.0214,0.25424 -0.051,0.509447 -0.11211,0.757163 -0.0614,0.248951 -0.14828,0.492495 -0.25409,0.726057 -0.1386,0.305938 -0.31504,0.594078 -0.49548,0.87736 -0.14124,0.221747 -0.45842,0.641829 -0.45842,0.641829"
       id="path10"
       sodipodi:nodetypes="csssssssssssssssssssssscsssssssssssssssssssssc" /><path
       style="fill:none;stroke:#8b3ec0;stroke-width:0.79375;stroke-linecap:butt;stroke-linejoin:miter;stroke-dasharray:none;stroke-opacity:1"
       d="m 15.922216,39.489087 c 0.107192,-0.595436 1.082559,-0.668149 1.687566,-0.668149 0.605007,0 1.580364,0.07271 1.68756,0.668149 0.13414,0.745092 -0.93049,1.860158 -1.68756,1.860158 -0.75707,0 -1.821699,-1.115065 -1.687566,-1.860158 z"
       id="path12"
       sodipodi:nodetypes="sssss" /><path
       style="fill:none;stroke:#8b3ec0;stroke-width:0.79375;stroke-linecap:round;stroke-linejoin:round;stroke-dasharray:none;stroke-opacity:1"
       d="M 14.756841,38.478871 C 10.584742,36.664693 7.8757757,37.165714 4.6957727,37.691837"
       id="path13"
       sodipodi:nodetypes="cc" /><path
       style="fill:none;stroke:#8b3ec0;stroke-width:0.79375;stroke-linecap:round;stroke-linejoin:round;stroke-dasharray:none;stroke-opacity:1"
       d="M 14.012461,39.651346 C 8.6790247,39.009577 7.5449897,39.515061 4.7697307,40.655482"
       id="path14"
       sodipodi:nodetypes="cc" /><path
       style="fill:none;stroke:#8b3ec0;stroke-width:0.79375;stroke-linecap:round;stroke-linejoin:round;stroke-dasharray:none;stroke-opacity:1"
       d="m 20.462712,38.478871 c 4.1721,-1.814178 6.88107,-1.313157 10.06107,-0.787034"
       id="path16"
       sodipodi:nodetypes="cc" /><path
       style="fill:none;stroke:#8b3ec0;stroke-width:0.79375;stroke-linecap:round;stroke-linejoin:round;stroke-dasharray:none;stroke-opacity:1"
       d="m 21.207092,39.651346 c 5.33344,-0.641769 6.46747,-0.136285 9.24273,1.004136"
       id="path17"
       sodipodi:nodetypes="cc" /></g></svg>
