<?xml version="1.0" encoding="UTF-8" standalone="no"?>
<!-- Created with Inkscape (http://www.inkscape.org/) -->

<svg
   width="199.509"
   height="179.13"
   viewBox="0 0 52.78675 47.394808"
   version="1.1"
   id="svg1"
   inkscape:version="1.4.2 (2aeb623e1d, 2025-05-12)"
   sodipodi:docname="owl.svg"
   xml:space="preserve"
   xmlns:inkscape="http://www.inkscape.org/namespaces/inkscape"
   xmlns:sodipodi="http://sodipodi.sourceforge.net/DTD/sodipodi-0.dtd"
   xmlns="http://www.w3.org/2000/svg"
   xmlns:svg="http://www.w3.org/2000/svg"><sodipodi:namedview
     id="namedview1"
     pagecolor="#ffffff"
     bordercolor="#000000"
     borderopacity="0.25"
     inkscape:showpageshadow="2"
     inkscape:pageopacity="0.0"
     inkscape:pagecheckerboard="0"
     inkscape:deskcolor="#d1d1d1"
     inkscape:document-units="px"
     inkscape:zoom="1.2726153"
     inkscape:cx="333.95795"
     inkscape:cy="258.12985"
     inkscape:window-width="2560"
     inkscape:window-height="1361"
     inkscape:window-x="0"
     inkscape:window-y="0"
     inkscape:window-maximized="1"
     inkscape:current-layer="layer1"
     showgrid="false" /><defs
     id="defs1" /><g
     inkscape:label="Layer 1"
     inkscape:groupmode="layer"
     id="layer1"><path
       style="fill:#23d98d;fill-opacity:1;stroke:none;stroke-width:0.264583px;stroke-linecap:butt;stroke-linejoin:miter;stroke-opacity:1"
       d="m 8.3383125,10.733577 c 0,0 -0.83914,-0.06018 -1.25794,-0.03612 -0.4155,0.02388 -0.83318,0.07285 -1.23572,0.178552 -0.32137,0.08438 -0.6299,0.216474 -0.92932,0.360518 -0.42437,0.204156 -0.84011,0.433669 -1.22128,0.710213 -0.33902,0.245963 -0.64821,0.533752 -0.93756,0.836594 -0.24901,0.260632 -0.47392,0.544835 -0.68247,0.838848 -0.21484,0.302879 -0.40717,0.622202 -0.58319,0.949172 -0.15949,0.296264 -0.30026,0.602951 -0.42696,0.914651 -0.12983999,0.319428 -0.24386999,0.645788 -0.34049999,0.976781 -0.10205,0.349567 -0.19673,0.703083 -0.25188,1.06304 -0.0528,0.344389 -0.0725,0.694158 -0.0746,1.042561 -0.002,0.38834 0.0278,0.776847 0.0691,1.162992 0.0587,0.549267 0.14776,1.095523 0.25381,1.637646 0.0959,0.490227 0.21455,0.976133 0.34543999,1.458198 0.12741,0.469237 0.27298,0.933618 0.42781,1.394537 0.1117,0.332531 0.23282,0.66199 0.36131,0.988398 0.14833,0.37679 0.30358,0.751135 0.47262,1.119098 0.21113,0.459583 0.43471,0.913873 0.67589,1.358423 0.21868,0.403089 0.45377,0.797422 0.69845,1.185288 0.14012,0.222137 0.28809,0.439384 0.44036,0.653376 0.22703,0.319044 0.45912,0.634915 0.70518,0.939519 0.20497,0.253728 0.42076,0.49878 0.64161,0.738804 0.18018,0.195814 0.36343,0.389287 0.55718,0.571677 0.34977,0.329256 0.70972,0.649299 1.09084,0.9417 0.37867,0.290529 0.77693,0.556086 1.18441,0.8046 0.26845,0.16372 0.54586,0.313227 0.82847,0.45107 0.28709,0.140029 0.8792205,0.381108 0.8792205,0.381108 0,0 0.31543,0.43671 0.47374,0.65463 0.27349,0.376469 0.53841,0.759394 0.82254,1.1279 0.21384,0.277338 0.43565,0.548649 0.66352,0.814575 0.2474,0.288716 0.50178,0.571634 0.76356,0.847376 0.24374,0.256731 0.49486,0.506548 0.75099,0.750911 0.18921,0.180515 0.38203,0.357425 0.58018,0.528082 0.37709,0.324773 0.76025,0.643234 1.15757,0.942922 0.27962,0.210909 0.57028,0.40697 0.86188,0.600982 0.30446,0.202573 0.6257,0.379563 0.92643,0.587647 0.16573,0.114676 0.48302,0.363649 0.48302,0.363649 0,0 -0.19055,0.320524 -0.2787,0.484743 -0.0995,0.185264 -0.19651,0.372161 -0.28204,0.564248 -0.10843,0.243485 -0.20477,0.492508 -0.29239,0.744228 -0.0369,0.105926 -0.071,0.213024 -0.098,0.321886 -0.0263,0.106071 -0.0542,0.21292 -0.0621,0.321916 -0.0164,0.225829 -0.045,0.465175 0.0307,0.678588 0.073,0.205858 0.23811,0.369428 0.38929,0.527058 0.0839,0.08747 0.18347,0.159162 0.2832,0.228033 0.19384,0.133864 0.40211,0.245965 0.60945,0.357788 0.16455,0.08874 0.50297,0.248174 0.50297,0.248174 0,0 0.10372,0.221198 0.17917,0.315852 0.14931,0.187314 0.31789,0.374227 0.53027,0.485015 0.19016,0.0992 0.41472,0.165141 0.62783,0.140899 0.21667,-0.02465 0.40857,-0.161751 0.58985,-0.282969 0.1578,-0.105525 0.42381,-0.380434 0.42381,-0.380434 0,0 0.40147,0.189531 0.61812,0.215847 0.22569,0.02741 0.4673,0.01868 0.67901,-0.06416 0.21576,-0.08443 0.38651,-0.260085 0.5526,-0.42164 0.22894,-0.222705 0.41262,-0.488261 0.60206,-0.745416 0.1672,-0.226978 0.32031,-0.464198 0.47082,-0.702577 0.20859,-0.330381 0.59855,-1.007817 0.59855,-1.007817 0,0 0.48364,0.0168 0.72545,0.02545 0.50126,0.01793 1.00217,0.05183 1.50374,0.0548 0.36014,0.0021 0.72002,-0.02024 1.08011,-0.02658 0.40276,-0.0071 1.20841,-0.01281 1.20841,-0.01281 0,0 0.17915,0.346055 0.27461,0.515863 0.10375,0.184571 0.21055,0.36758 0.32389,0.546423 0.12761,0.201342 0.25902,0.400613 0.40065,0.592349 0.1274,0.172483 0.25944,0.342182 0.40337,0.501137 0.12694,0.140192 0.2555,0.281412 0.40461,0.397751 0.17937,0.139946 0.36307,0.295539 0.58247,0.355737 0.1418,0.03891 0.29625,0.01973 0.44109,-0.0056 0.21935,-0.03836 0.631202,-0.218707 0.631202,-0.218707 0,0 0.27114,0.279894 0.43213,0.38699 0.17869,0.11887 0.36862,0.249334 0.58153,0.276368 0.18044,0.02291 0.37065,-0.02728 0.53575,-0.103622 0.16759,-0.0775 0.3039,-0.213639 0.43239,-0.346239 0.14266,-0.147218 0.36913,-0.491905 0.36913,-0.491905 0,0 0.33605,-0.161414 0.50102,-0.248116 0.13585,-0.0714 0.27361,-0.140304 0.40228,-0.223948 0.20122,-0.130801 0.41038,-0.258513 0.57541,-0.432763 0.12589,-0.132925 0.24375,-0.283987 0.3058,-0.456227 0.0526,-0.146026 0.0509,-0.308101 0.047,-0.463266 -0.005,-0.209857 -0.0442,-0.418898 -0.0951,-0.622549 -0.0545,-0.217838 -0.13897,-0.427468 -0.22373,-0.635405 -0.10832,-0.265749 -0.23196,-0.52536 -0.36323,-0.780555 -0.10752,-0.209025 -0.34709,-0.613833 -0.34709,-0.613833 0,0 0.6782,-0.456849 1.01604,-0.68712 0.40384,-0.275255 0.81664,-0.53813 1.20852,-0.830168 0.37466,-0.279203 0.73607,-0.57624 1.09086,-0.880292 0.28567,-0.244818 0.56343,-0.49902 0.83492,-0.75947 0.20556,-0.197201 0.40485,-0.400978 0.60078,-0.607751 0.24063,-0.253945 0.4769,-0.51221 0.70562,-0.776928 0.20803,-0.240767 0.40848,-0.488079 0.60602,-0.737526 0.18551,-0.234265 0.3667,-0.472013 0.54377,-0.712724 0.10836,-0.147303 0.21028,-0.299245 0.31729,-0.447532 0.12452,-0.172556 0.26586,-0.333605 0.37788,-0.514524 0.0522,-0.08433 0.13619,-0.264583 0.13619,-0.264583 0,0 0.35166,-0.137921 0.5236,-0.215863 0.23012,-0.104313 0.45547,-0.219087 0.67913,-0.336606 0.20525,-0.107842 0.41104,-0.215531 0.60792,-0.337981 0.38229,-0.237765 0.75283,-0.49527 1.11055,-0.768609 0.27657,-0.211336 0.54139,-0.438232 0.79897,-0.672349 0.20571,-0.18697 0.4039,-0.382423 0.59526,-0.584054 0.31844,-0.335534 0.62586,-0.682022 0.91884,-1.040003 0.19941,-0.243651 0.38905,-0.495503 0.57021,-0.753012 0.29393,-0.417803 0.5728,-0.846521 0.83732,-1.283534 0.17953,-0.296595 0.34661,-0.600741 0.50827,-0.907441 0.15372,-0.291639 0.29845,-0.588044 0.43872,-0.886386 0.13984,-0.297432 0.27452,-0.597408 0.40151,-0.900549 0.11754,-0.280586 0.22949,-0.56364 0.33345,-0.84954 0.16953,-0.466249 0.33297,-0.935235 0.47307,-1.411157 0.18304,-0.621802 0.34375,-1.2507 0.4794,-1.884529 0.0925,-0.432064 0.16968,-0.867823 0.22763,-1.305854 0.0584,-0.44175 0.0977,-0.886328 0.12081,-1.331327 0.009,-0.175059 0.0156,-0.350756 0.007,-0.525838 -0.0178,-0.360012 -0.0579,-0.719655 -0.12077,-1.074584 -0.0433,-0.244406 -0.10766,-0.484908 -0.17596,-0.723532 -0.0808,-0.282187 -0.17293,-0.561367 -0.27617,-0.836131 -0.0841,-0.223821 -0.17899,-0.443643 -0.27921,-0.660723 -0.10047,-0.217629 -0.20431,-0.434206 -0.32261,-0.642681 -0.17428,-0.307112 -0.36141,-0.60791 -0.56905,-0.893527 -0.18937,-0.260489 -0.39552,-0.509461 -0.61508,-0.745061 -0.15282,-0.163979 -0.31782,-0.31667 -0.48715,-0.463534 -0.21401,-0.185616 -0.43269,-0.367466 -0.66701,-0.526672 -0.25326,-0.17207 -0.51889,-0.327684 -0.79474,-0.460549 -0.29299,-0.141121 -0.60006,-0.252637 -0.9087,-0.355095 -0.14325,-0.04755 -0.289,-0.08853 -0.43659,-0.120126 -0.34576,-0.07402 -0.69588,-0.133689 -1.04834,-0.161973 -0.37768,-0.03031 -1.13667,-0.0078 -1.13667,-0.0078 0,0 -0.32397,-0.491265 -0.4807,-0.7402608 -0.22343,-0.354977 -0.42463,-0.7239 -0.65516,-1.074309 -0.23284,-0.353916 -0.48,-0.698509 -0.73449,-1.037188 -0.20739,-0.275991 -0.42299,-0.545947 -0.64529,-0.810077 -0.19858,-0.235946 -0.40254,-0.467608 -0.61459,-0.691526 -0.25152,-0.265606 -0.51382,-0.520997 -0.77938,-0.77257 -0.21939,-0.207834 -0.44144,-0.413214 -0.67212,-0.608436 -0.33177,-0.280769 -0.67262,-0.55126 -1.02286,-0.808622 -0.32471,-0.238603 -0.65557,-0.469853 -0.99874,-0.681048 -0.60578,-0.372816 -1.23099,-0.715054 -1.86768,-1.032213 -0.30246,-0.150664 -0.61355,-0.283786 -0.92585,-0.412814 -0.35234,-0.145571 -0.70783,-0.284387 -1.06868,-0.407349 -0.5308,-0.180871 -1.06887,-0.341112 -1.61077,-0.485341 -0.3436,-0.09145 -0.690232,-0.17238797 -1.039172,-0.24067297 -0.64302,-0.125835 -1.29078,-0.229418 -1.9409,-0.311052 -0.435,-0.05462 -0.87204,-0.09577 -1.30982,-0.119417 -0.85902,-0.04641 -1.72031,-0.06002 -2.58043,-0.04392 -0.45381,0.0085 -0.9077,0.03224 -1.35966,0.0741 -0.81602,0.07558 -1.63178,0.170812 -2.43772,0.319386 -0.7147,0.131755 -1.42212,0.30567197 -2.12064,0.50622997 -0.50321,0.14448 -1.00099,0.310358 -1.48846,0.501309 -0.67758,0.265418 -1.34589,0.558534 -1.99175,0.893828 -0.60385,0.313487 -1.19296,0.658753 -1.75501,1.04217 -0.67009,0.457118 -1.30887,0.961718 -1.92026,1.494803 -0.39287,0.342559 -0.76228,0.712178 -1.11967,1.09162 -0.32621,0.346349 -0.63391,0.710167 -0.93349,1.079791 -0.21413,0.264187 -0.41814,0.536617 -0.6169105,0.812549 -0.16421,0.227965 -0.32237,0.46037 -0.47529,0.696058 -0.18734,0.288735 -0.54145,0.87921 -0.54145,0.87921"
       id="path34"
       sodipodi:nodetypes="csssssssssssssssssssssssssscssssssssscssssssssscsssscssssscssscssssssscsssscsssssssscsssssssssscssssssssssssssssssssssssssssssscssssssssssssssssssssssssssssc" /><path
       style="fill:none;stroke:#008077;stroke-width:0.79375;stroke-linecap:round;stroke-linejoin:round;stroke-dasharray:none;stroke-opacity:1"
       d="m 8.2352525,10.688254 c 0,0 -0.770924,-0.01992 -1.15475,0.0092 -0.414991,0.03149 -0.833181,0.07285 -1.23572,0.178552 -0.321372,0.08438 -0.629899,0.216474 -0.929318,0.360518 -0.424371,0.204156 -0.840108,0.433669 -1.221282,0.710213 -0.339022,0.245962 -0.648212,0.53375 -0.937556,0.836592 -0.249016,0.260633 -0.473924,0.544836 -0.682477,0.83885 -0.214841,0.302879 -0.407163,0.622202 -0.583184,0.949172 -0.159491,0.296264 -0.300266,0.602951 -0.426966,0.914651 -0.12984099,0.319428 -0.24386699,0.645788 -0.34049399,0.976781 -0.102049,0.349567 -0.196729,0.703083 -0.251886,1.06304 -0.05277,0.344389 -0.0725,0.694158 -0.07461,1.042561 -0.0024,0.38834 0.02777,0.776847 0.06907,1.162992 0.05874,0.549267 0.147761,1.095523 0.253815,1.637646 0.0959,0.490226 0.212333,0.976739 0.34544199,1.458196 0.169272,0.612259 0.359775,1.219238 0.575641,1.816663 0.206123,0.57046 0.436469,1.132562 0.686093,1.685372 0.208141,0.460945 0.434708,0.913871 0.675889,1.358421 0.218687,0.403089 0.449292,0.800289 0.69845,1.18529 0.308337,0.476445 0.635644,0.941372 0.984056,1.389346 0.253377,0.325781 0.52209,0.640084 0.803101,0.942353 0.293634,0.315847 0.597475,0.623461 0.920985,0.908629 0.415054,0.365862 0.847067,0.715161 1.304803,1.02597 0.457796,0.310849 0.941212,0.584906 1.435108,0.834448 0.285099,0.144047 0.8792245,0.381106 0.8792245,0.381106"
       id="path21"
       sodipodi:nodetypes="csssssssssssssssssssssssc" /><path
       style="fill:none;stroke:#008077;stroke-width:0.79375;stroke-linecap:round;stroke-linejoin:round;stroke-dasharray:none;stroke-opacity:1"
       d="m 18.189467,6.0674662 c 0,0 0.676901,-0.0016 1.006299,0.06541 0.35771,0.07275 0.699335,0.215052 1.033732,0.361431 0.289499,0.126725 0.564053,0.285975 0.837008,0.445236 0.410377,0.239443 0.797837,0.516289 1.201954,0.766152 0.386779,0.239143 0.78133,0.465502 1.170072,0.701442 0.273399,0.165935 0.530929,0.360228 0.817467,0.502274 0.357755,0.17735 0.73049,0.332579 1.117058,0.432612 0.332275,0.08598 0.676853,0.134523 1.020019,0.140563 0.249286,0.0044 0.500133,-0.02459 0.744106,-0.07597 0.366904,-0.07727 0.723678,-0.203245 1.07007,-0.346778 0.307367,-0.127363 0.599316,-0.29019 0.888873,-0.454057 0.360211,-0.203852 0.705025,-0.433873 1.053531,-0.657148 0.305711,-0.195858 0.602224,-0.405962 0.909968,-0.598609 0.377972,-0.236609 0.752,-0.482251 1.149631,-0.684083 0.33258,-0.168814 0.67064,-0.336621 1.02945,-0.438433 0.39672,-0.112568 0.81082,-0.189628 1.22318,-0.185288 0.2424,0.0026 0.48346,0.05756 0.71658,0.124029 0.35965,0.10254 0.70592,0.252726 1.04019,0.42042 0.27199,0.13645 0.53153,0.298605 0.78024,0.473935 0.30274,0.213419 0.59295,0.446593 0.8625,0.700646 0.30555,0.287979 0.59598,0.595168 0.85065,0.928989 0.31706,0.415606 0.61303,0.854058 0.83565,1.3270218 0.23686,0.503216 0.4211,1.037893 0.5215,1.584931 0.0665,0.362526 0.0984,0.739241 0.0499,1.104617 -0.0695,0.523619 -0.23968,1.040216 -0.48206,1.509535 -0.19638,0.380247 -0.48261,0.710441 -0.77119,1.026467 -0.21672,0.237334 -0.4658,0.443937 -0.71523,0.646617 -0.30903,0.251105 -0.63479,0.481629 -0.96548,0.70343 -0.27716,0.185896 -0.56373,0.357706 -0.85251,0.524975 -0.44313,0.25667 -0.89408,0.500044 -1.34966,0.733901 -0.52404,0.268995 -1.0474,0.542146 -1.59087,0.76934 -0.34504,0.144245 -0.69915,0.267617 -1.05716,0.375734 -0.473695,0.143052 -0.955918,0.258176 -1.440117,0.36017 -0.293539,0.06183 -0.589792,0.11131 -0.886947,0.152387 -0.546737,0.07558 -1.096375,0.131528 -1.646763,0.172846 -0.38816,0.02914 -0.777411,0.04384 -1.166559,0.05286 -0.510081,0.01182 -1.020619,0.01529 -1.530654,0.0016 -0.595407,-0.01598 -1.19172,-0.03655 -1.784191,-0.09773 -0.785474,-0.08111 -1.571867,-0.18191 -2.341969,-0.356526 -0.692953,-0.157123 -1.377753,-0.361043 -2.039625,-0.619495 -0.646627,-0.252499 -1.259321,-0.585533 -1.875499,-0.90523 -0.495186,-0.256922 -0.987957,-0.520339 -1.462646,-0.813406 -0.480819,-0.296852 -0.96094,-0.600109 -1.400384,-0.955352 -0.394725,-0.319092 -0.781308,-0.657246 -1.102677,-1.05012 -0.282384,-0.345215 -0.536882,-0.722573 -0.712343,-1.132607 -0.148705,-0.347508 -0.240857,-0.723274 -0.277527,-1.099479 -0.03805,-0.390359 -0.0011,-0.787921 0.06224,-1.17498 0.05245,-0.320425 0.146722,-0.63456 0.26127,-0.938371 0.14247,-0.377869 0.322275,-0.7427278 0.526481,-1.0911278 0.191176,-0.32617 0.414123,-0.634053 0.650444,-0.929159 0.194309,-0.242644 0.404733,-0.473205 0.628621,-0.688858 0.276452,-0.266285 0.566985,-0.520334 0.879065,-0.743805 0.33881,-0.242611 0.690912,-0.474513 1.071869,-0.643405 0.452812,-0.200748 1.422197,-0.430579 1.422197,-0.430579"
       id="path22"
       sodipodi:nodetypes="csssssssssssssssssssssssssssssssssssssssssssssssssssssc" /><path
       style="fill:none;stroke:#008077;stroke-width:0.79375;stroke-linecap:round;stroke-linejoin:round;stroke-dasharray:none;stroke-opacity:1"
       d="m 26.393073,18.037698 c 0,0 -0.628102,-0.57113 -0.915839,-0.882467 C 25.21498,16.871467 24.964771,16.574872 24.741078,16.259815 24.467097,15.87393 24.20453,15.475179 24.002947,15.046999 23.892836,14.813113 23.8007,14.567481 23.74923,14.314148 c -0.03822,-0.188123 -0.06339,-0.384187 -0.0389,-0.574585 0.02373,-0.184451 0.07876,-0.371285 0.177337,-0.528978 0.100219,-0.160314 0.246458,-0.293814 0.404471,-0.397624 0.219416,-0.14415 0.474947,-0.233018 0.729745,-0.296267 0.44587,-0.11068 0.911787,-0.137465 1.371187,-0.138925 0.438211,-0.0014 0.883326,0.01914 1.308759,0.124201 0.29602,0.0731 0.600572,0.16675 0.846193,0.347421 0.184026,0.135364 0.353685,0.315107 0.437295,0.527706 0.113472,0.28853 0.105934,0.623037 0.05337,0.92859 -0.07702,0.447725 -0.311578,0.857084 -0.528397,1.256308 -0.159164,0.293064 -0.353566,0.567437 -0.56238,0.827468 -0.472916,0.588911 -1.554837,1.648235 -1.554837,1.648235 z"
       id="path23"
       sodipodi:nodetypes="csssssssssssssssc" /><path
       style="fill:none;stroke:#008077;stroke-width:0.79375;stroke-linecap:round;stroke-linejoin:round;stroke-dasharray:none;stroke-opacity:1"
       d="m 15.699987,20.972689 c 0,0 0.690803,0.368802 1.047419,0.529756 0.356884,0.161075 0.72445,0.297668 1.090996,0.435346 0.381427,0.143268 0.763148,0.287305 1.152797,0.406408 0.549923,0.168093 1.669613,0.434083 1.669613,0.434083 0,0 -0.565692,0.478734 -0.89649,0.636481 -0.297685,0.141957 -0.625368,0.227528 -0.952876,0.266343 -0.256739,0.03043 -0.520722,0.01785 -0.775088,-0.0284 -0.256548,-0.04665 -0.510026,-0.128869 -0.741786,-0.248367 -0.278304,-0.143497 -0.535065,-0.33441 -0.759568,-0.552683 -0.157401,-0.153033 -0.29025,-0.332656 -0.402321,-0.521427 -0.129618,-0.218327 -0.23128,-0.454798 -0.306673,-0.697251 -0.06653,-0.213963 -0.126023,-0.660289 -0.126023,-0.660289 z"
       id="path24"
       sodipodi:nodetypes="cssscsssssssc" /><path
       style="fill:none;stroke:#008077;stroke-width:0.79375;stroke-linecap:round;stroke-linejoin:round;stroke-dasharray:none;stroke-opacity:1"
       d="m 23.753471,22.852312 c 0,0 0.717973,0.106919 1.079555,0.134551 0.492325,0.03762 0.986999,0.05127 1.480677,0.04228 0.908087,-0.01653 2.718969,-0.176832 2.718969,-0.176832 0,0 -0.249017,0.463086 -0.413086,0.666586 -0.161101,0.199819 -0.344851,0.385869 -0.5536,0.535218 -0.251976,0.180276 -0.533302,0.325811 -0.827202,0.423862 -0.241578,0.08059 -0.498362,0.122315 -0.752924,0.129628 -0.271193,0.0078 -0.547406,-0.01887 -0.80872,-0.09182 -0.308726,-0.08618 -0.609258,-0.220641 -0.87349,-0.402082 -0.274078,-0.188202 -0.50893,-0.434608 -0.714635,-0.695806 -0.135628,-0.172215 -0.335544,-0.565585 -0.335544,-0.565585 z"
       id="path25"
       sodipodi:nodetypes="csscsssssssc" /><path
       style="fill:none;stroke:#008077;stroke-width:0.79375;stroke-linecap:round;stroke-linejoin:round;stroke-dasharray:none;stroke-opacity:1"
       d="m 32.125335,22.778282 c 0,0 0.5687,-0.108342 0.84851,-0.181602 0.31981,-0.08373 0.63336,-0.190081 0.94709,-0.294317 0.32645,-0.108464 0.65038,-0.224579 0.97283,-0.344403 0.27003,-0.100343 0.54125,-0.198446 0.80532,-0.313576 0.47091,-0.205312 1.38708,-0.671695 1.38708,-0.671695 0,0 -0.0822,0.542783 -0.17156,0.800711 -0.08,0.230916 -0.18751,0.454708 -0.32271,0.65828 -0.13715,0.206507 -0.30333,0.395945 -0.48852,0.560745 -0.17302,0.153967 -0.36812,0.285126 -0.57334,0.392486 -0.18412,0.09632 -0.37887,0.180883 -0.58261,0.221765 -0.46502,0.09331 -0.90357,0.109386 -1.36669,0.0071 -0.30445,-0.06725 -0.62836,-0.213618 -0.89058,-0.382306 -0.203,-0.130595 -0.56482,-0.45317 -0.56482,-0.45317 z"
       id="path26"
       sodipodi:nodetypes="csssscsssssssc" /><path
       style="fill:none;stroke:#008077;stroke-width:0.79375;stroke-linecap:round;stroke-linejoin:round;stroke-dasharray:none;stroke-opacity:1"
       d="m 19.386005,42.415903 c 0,0 -0.374662,0.698311 -0.541827,1.057325 -0.155447,0.333848 -0.325824,0.664691 -0.42817,1.018448 -0.08475,0.292944 -0.136674,0.597763 -0.150508,0.902406 -0.0099,0.219073 -0.03637,0.454059 0.04897,0.656071 0.138787,0.32852 0.402327,0.619558 0.709433,0.800867 0.184697,0.109041 0.414724,0.165141 0.627832,0.140899 0.216673,-0.02465 0.408573,-0.16175 0.589849,-0.282969 0.157807,-0.105525 0.303085,-0.23393 0.423812,-0.380434 0.173626,-0.210697 0.289783,-0.46318 0.420539,-0.70285 0.120728,-0.221289 0.232177,-0.447813 0.335511,-0.67774 0.09612,-0.213868 0.184029,-0.431578 0.264223,-0.651912 0.125476,-0.344748 0.338947,-1.047126 0.338947,-1.047126"
       id="path27"
       sodipodi:nodetypes="csssssssssssc" /><path
       style="fill:none;stroke:#008077;stroke-width:0.79375;stroke-linecap:round;stroke-linejoin:round;stroke-dasharray:none;stroke-opacity:1"
       d="m 17.512112,41.573491 c 0,0 -0.190549,0.320524 -0.278704,0.484743 -0.09945,0.185264 -0.196505,0.372161 -0.28204,0.564248 -0.108423,0.243485 -0.21131,0.490323 -0.292381,0.744228 -0.06726,0.210662 -0.138217,0.423751 -0.160136,0.643802 -0.02244,0.225313 -0.04495,0.465175 0.03071,0.678588 0.07298,0.205858 0.23428,0.373186 0.389287,0.527058 0.155528,0.154389 0.345235,0.271539 0.531685,0.386696 0.275904,0.170406 0.863931,0.447299 0.863931,0.447299"
       id="path28"
       sodipodi:nodetypes="csssssssc" /><path
       style="fill:none;stroke:#008077;stroke-width:0.79375;stroke-linecap:round;stroke-linejoin:round;stroke-dasharray:none;stroke-opacity:1"
       d="m 20.6654,46.328516 c 0,0 0.403302,0.177347 0.61812,0.215847 0.149044,0.02671 0.306173,0.04047 0.454178,0.0085 0.195899,-0.04232 0.382376,-0.138394 0.542901,-0.25839 0.170608,-0.127533 0.288481,-0.31361 0.426707,-0.475676 0.140798,-0.165081 0.28104,-0.331075 0.409879,-0.50565 0.167404,-0.226831 0.323057,-0.462489 0.470821,-0.702577 0.173796,-0.282385 0.598554,-1.007818 0.598554,-1.007818"
       id="path29"
       sodipodi:nodetypes="cssssssc" /><path
       style="fill:none;stroke:#008077;stroke-width:0.79375;stroke-linecap:round;stroke-linejoin:round;stroke-dasharray:none;stroke-opacity:1"
       d="m 30.806939,43.248888 c 0,0 0.184572,0.618456 0.293259,0.922144 0.0937,0.261799 0.19439,0.521499 0.309004,0.77484 0.126163,0.278867 0.267459,0.55098 0.416057,0.818566 0.10666,0.192067 0.200716,0.394919 0.340896,0.564078 0.12339,0.148891 0.27113,0.279929 0.43213,0.387035 0.17869,0.118875 0.36862,0.249334 0.58153,0.276368 0.18044,0.02291 0.37065,-0.02728 0.53575,-0.103621 0.16759,-0.0775 0.3039,-0.213639 0.43239,-0.346239 0.14266,-0.147218 0.29411,-0.301124 0.36913,-0.491906 0.0605,-0.15374 0.0554,-0.327672 0.0522,-0.492839 -0.006,-0.286621 -0.0538,-0.573103 -0.12407,-0.851032 -0.066,-0.2611 -0.18318,-0.50654 -0.27747,-0.758812 -0.0605,-0.161973 -0.11466,-0.326683 -0.18508,-0.484613 -0.15973,-0.358235 -0.53711,-1.046954 -0.53711,-1.046954"
       id="path30"
       sodipodi:nodetypes="csssssssssssssc" /><path
       style="fill:none;stroke:#008077;stroke-width:0.79375;stroke-linecap:round;stroke-linejoin:round;stroke-dasharray:none;stroke-opacity:1"
       d="m 28.704264,43.643609 c 0,0 0.17915,0.346055 0.274608,0.515864 0.103757,0.18457 0.21055,0.36758 0.323895,0.546422 0.127605,0.201342 0.259015,0.400613 0.400645,0.592349 0.127408,0.172483 0.259443,0.342182 0.403376,0.501137 0.126943,0.140192 0.255501,0.281412 0.404611,0.397751 0.179366,0.139946 0.363072,0.295539 0.582465,0.355737 0.141803,0.03891 0.296251,0.01973 0.441097,-0.0056 0.219342,-0.03836 0.631194,-0.218707 0.631194,-0.218707"
       id="path31"
       sodipodi:nodetypes="csssssssc" /><path
       style="fill:none;stroke:#008077;stroke-width:0.79375;stroke-linecap:round;stroke-linejoin:round;stroke-dasharray:none;stroke-opacity:1"
       d="m 35.319445,41.573491 c 0,0 0.23957,0.404808 0.34709,0.613833 0.13127,0.255195 0.2598,0.512864 0.36323,0.780555 0.11267,0.29162 0.23313,0.586212 0.27883,0.895485 0.0402,0.272299 0.0742,0.562733 -0.007,0.825736 -0.054,0.174928 -0.17991,0.323302 -0.3058,0.456226 -0.16503,0.17425 -0.37247,0.304649 -0.57541,0.432763 -0.28738,0.181422 -0.9037,0.472064 -0.9037,0.472064"
       id="path32"
       sodipodi:nodetypes="cssssssc" /><path
       style="fill:none;stroke:#008077;stroke-width:0.79375;stroke-linecap:round;stroke-linejoin:round;stroke-dasharray:none;stroke-opacity:1"
       d="m 44.550895,10.688254 c 0,0 0.75899,-0.02251 1.13668,0.0078 0.35246,0.02828 0.70474,0.07849 1.04834,0.161973 0.39346,0.0956 0.78129,0.222624 1.15174,0.386072 0.34488,0.152164 0.67895,0.334263 0.98828,0.549698 0.41597,0.289703 0.79914,0.628386 1.15416,0.990206 0.22555,0.229872 0.42571,0.484572 0.61508,0.745061 0.20764,0.285617 0.39981,0.583611 0.56905,0.893527 0.22935,0.420004 0.4293,0.857041 0.60183,1.303403 0.13797,0.356937 0.25142,0.723909 0.34486,1.094999 0.0871,0.34596 0.16311,0.696553 0.20028,1.05137 0.0352,0.336137 0.0326,0.675946 0.0208,1.013716 -0.0156,0.445327 -0.0644,0.889314 -0.12081,1.331328 -0.0423,0.331212 -0.0984,0.660751 -0.16295,0.988354 -0.0983,0.498838 -0.21154,0.995005 -0.34117,1.486627 -0.11845,0.449257 -0.25392,0.894114 -0.39859,1.335627 -0.11537,0.352092 -0.24125,0.700816 -0.37412,1.046684 -0.12847,0.33441 -0.26292,0.666738 -0.40887,0.993899 -0.20904,0.468605 -0.43125,0.931632 -0.66808,1.386824 -0.16002,0.307558 -0.3305,0.609789 -0.50827,0.907441 -0.18989,0.317947 -0.38652,0.632219 -0.59598,0.93763 -0.25755,0.375534 -0.5238,0.745987 -0.81155,1.098915 -0.35246,0.432296 -0.72572,0.848516 -1.11828,1.244756 -0.25748,0.259894 -0.52947,0.505711 -0.80955,0.741072 -0.27739,0.233097 -0.56579,0.453392 -0.86106,0.663382 -0.20612,0.146591 -0.41667,0.287643 -0.63473,0.415805 -0.41759,0.245434 -0.84817,0.469631 -1.28705,0.674587 -0.17105,0.07988 -0.5236,0.215863 -0.5236,0.215863"
       id="path33"
       sodipodi:nodetypes="cssssssssssssssssssssssssssc" /><path
       style="fill:none;stroke:#008077;stroke-width:0.79375;stroke-linecap:round;stroke-linejoin:round;stroke-dasharray:none;stroke-opacity:1"
       d="m 7.5978605,12.355608 c 0,0 -0.423401,1.109438 -0.600337,1.675809 -0.181653,0.581471 -0.335108,1.171924 -0.472651,1.765379 -0.09086,0.392037 -0.167623,0.787518 -0.232622,1.184662 -0.08966,0.547822 -0.163946,1.09857 -0.216807,1.651158 -0.0484,0.505948 -0.07906,1.013913 -0.09171,1.522013 -0.01304,0.523677 -0.0066,1.048094 0.01632,1.571432 0.01919,0.438443 0.05589,0.876182 0.10139,1.312679 0.04167,0.399669 0.09469,0.798266 0.157068,1.195229 0.06336,0.403194 0.140477,0.804189 0.220514,1.204407 0.04772,0.23864 0.09772,0.47692 0.154818,0.713491 0.123459,0.511495 0.255523,1.021232 0.405818,1.525495 0.156552,0.525257 0.3286,1.046157 0.516184,1.561147 0.184974,0.507826 0.384371,1.010721 0.600344,1.506159 0.238137,0.546284 0.494163,1.085067 0.766146,1.615313 0.220318,0.429522 0.454187,0.852347 0.700657,1.267415 0.278795,0.469505 0.5718305,0.930891 0.8794275,1.382051 0.262127,0.384469 0.538416,0.759394 0.822547,1.1279 0.213837,0.277338 0.435642,0.548649 0.663514,0.814575 0.247401,0.288716 0.500234,0.573113 0.763566,0.847376 0.344385,0.35868 0.697207,0.710038 1.066686,1.04281 0.457547,0.41209 0.92794,0.811647 1.422048,1.179105 0.57435,0.427132 1.174411,0.820593 1.788308,1.188629 0.360414,0.216071 0.736331,0.405411 1.110239,0.597186 0.411504,0.211059 0.817312,0.437041 1.246677,0.608875 0.429384,0.171842 0.876523,0.297185 1.322589,0.419354 0.882228,0.241626 1.771901,0.464154 2.673381,0.619212 0.505859,0.08701 1.017538,0.145175 1.53003,0.173736 1.024203,0.05708 2.053796,0.0621 3.077371,-0.0053 0.677857,-0.04463 1.352336,-0.142963 2.020837,-0.26375 0.532852,-0.09628 1.063064,-0.213809 1.582499,-0.366739 0.829743,-0.244288 1.651443,-0.526501 2.442023,-0.87739 0.79467,-0.352702 1.55781,-0.777068 2.30074,-1.228685 0.41762,-0.253869 0.81836,-0.53585 1.20853,-0.830167 0.51252,-0.386603 1.00744,-0.797383 1.4846,-1.22686 0.36137,-0.325254 0.71449,-0.661281 1.04195,-1.020653 0.77365,-0.84905 1.49346,-1.748411 2.17271,-2.67471 0.18399,-0.25091 0.34892,-0.515417 0.51407,-0.779108 0.3031,-0.483935 0.60031,-0.972138 0.87463,-1.472946 0.27732,-0.506288 0.53725,-1.022506 0.77874,-1.546833 0.27453,-0.596074 0.53765,-1.198671 0.76091,-1.815785 0.39095,-1.080645 0.74596,-2.177834 1.01037,-3.296192 0.26137,-1.105491 0.4362,-2.23204 0.56612,-3.360554 0.0617,-0.536086 0.0869,-1.076287 0.10087,-1.615734 0.013,-0.504557 0.006,-1.009873 -0.0162,-1.514088 -0.0231,-0.513233 -0.0642,-1.025934 -0.122,-1.53642 -0.0566,-0.499284 -0.12686,-0.997522 -0.21991,-1.49131 -0.12929,-0.686097 -0.28404,-1.368134 -0.46958,-2.041202 -0.15106,-0.547996 -0.32731,-1.089449 -0.52322,-1.623057 -0.19869,-0.541182 -0.4186,-1.075128 -0.66056,-1.598396 -0.23502,-0.508242 -0.49059,-1.00757 -0.76731,-1.4943638 -0.27971,-0.492053 -0.57868,-0.973982 -0.90115,-1.439137 -0.35443,-0.511261 -0.73574,-1.004346 -1.13378,-1.482436 -0.25395,-0.305024 -0.52098,-0.599569 -0.79906,-0.882777 -0.40591,-0.413397 -0.82612,-0.813923 -1.26704,-1.189755 -0.42842,-0.365181 -0.87369,-0.711918 -1.33642,-1.032517 -0.54594,-0.37825 -1.11624,-0.721507 -1.69447,-1.048258 -0.28007,-0.158265 -0.56671,-0.305395 -0.85838,-0.441108 -0.57974,-0.269752 -1.16837,-0.522767 -1.76959,-0.740492 -0.60197,-0.218 -1.21395,-0.412314 -1.83571,-0.565013 -0.981082,-0.24094697 -1.979296,-0.41376297 -2.980068,-0.55172497 -0.43431,-0.05987 -0.871946,-0.0976 -1.30982,-0.119417 -1.007229,-0.05019 -2.018751,-0.08816 -3.025322,-0.02617 -1.426168,0.08783 -2.849172,0.278637 -4.249507,0.562771 -0.598318,0.12140097 -1.185471,0.29668097 -1.765805,0.48624397 -0.61526,0.200972 -1.222228,0.430005 -1.815407,0.68899 -0.53891,0.23529 -1.064886,0.500967 -1.580271,0.784098 -0.375179,0.206108 -0.74103,0.429654 -1.09874,0.664779 -0.387735,0.254861 -0.766259,0.524338 -1.133822,0.807516 -0.338381,0.260696 -0.669264,0.532014 -0.985049,0.819666 -0.473964,0.43174 -0.931026,0.883355 -1.362461,1.357596 -0.369551,0.406217 -0.717853,0.832373 -1.047609,1.27151 -0.3480995,0.463565 -0.6746925,0.94389 -0.9805895,1.436325 -0.296781,0.47776 -0.572663,0.9690598 -0.827658,1.4703688 -0.252501,0.496405 -0.694098,1.519803 -0.694098,1.519803"
       id="path35"
       sodipodi:nodetypes="csssssssssssssssssssssssssssssssssssssssssssssssssssssssssssssssssssssssssc" /></g></svg>
